<svg xmlns="http://www.w3.org/2000/svg" xmlns:xlink="http://www.w3.org/1999/xlink" width="655.028" height="655.028" viewBox="0 0 655.028 655.028"><defs><linearGradient id="a" x1="0.5" y1="1" x2="0.5" gradientUnits="objectBoundingBox"><stop offset="0" stop-color="#b01c1c"/><stop offset="0.381" stop-color="#f23030"/><stop offset="1" stop-color="#ff4545"/></linearGradient><linearGradient id="b" x1="0.5" y1="1" x2="0.5" gradientUnits="objectBoundingBox"><stop offset="0.017" stop-color="#590000"/><stop offset="1" stop-color="#bf5454"/></linearGradient><linearGradient id="c" x1="0.5" y1="1" x2="0.5" gradientUnits="objectBoundingBox"><stop offset="0.017" stop-color="#8a2222"/><stop offset="0.982" stop-color="#fd6f6f"/></linearGradient><radialGradient id="d" cx="0.237" cy="-0.25" r="2.741" gradientTransform="translate(0.244) scale(0.511 1)" gradientUnits="objectBoundingBox"><stop offset="0" stop-color="#ffe1ed"/><stop offset="0.006" stop-color="#ffd9f0"/><stop offset="0.983" stop-color="#080800"/></radialGradient><linearGradient id="e" x1="0.5" y1="1" x2="0.5" gradientUnits="objectBoundingBox"><stop offset="0" stop-color="#fff"/><stop offset="1" stop-color="#fff"/></linearGradient></defs><g transform="translate(-954 -593.859)"><g transform="translate(954 593.859)"><path d="M559.4,13.47c180.857,0,327.488,146.63,327.488,327.489S740.255,668.5,559.4,668.5c-180.91,0-327.54-146.68-327.54-327.539S378.488,13.47,559.4,13.47Z" transform="translate(-231.858 -13.47)" fill-rule="evenodd" fill="url(#a)"/><path d="M549.827,13.663c175.472,0,317.772,142.3,317.772,317.774s-142.3,311.23-317.772,311.23S232.052,506.909,232.052,331.437,374.354,13.663,549.827,13.663Z" transform="translate(-222.287 -3.948)" fill-rule="evenodd" fill="url(#b)" style="mix-blend-mode:screen;isolation:isolate"/><path d="M843.883,257.489C812.422,117.956,687.688,13.76,538.694,13.76c-149.047,0-273.731,104.2-305.191,243.679-33.826,149.8,644.206,149.751,610.38.05Z" transform="translate(-211.153 0.838)" fill-rule="evenodd" opacity="0.5" fill="url(#c)" style="mix-blend-mode:screen;isolation:isolate"/><path d="M331.523,105.976c-14.9,10.269-23.758,17.417-31.36,19.732-19.631,5.94-26.879-11.477-17.667-24.111,8.053-11.074,43.843-46.561,102.435-67.853,84.464-30.756,178.442-20.487,180.606-4.48.857,6.04-22.4,2.013-69.565,10.168-64.48,11.124-112.149,30.554-164.449,66.545ZM268.25,167.789c-10.319,16.208-22.651,18.977-29.8,13.289-7.148-5.638-7.853-18.272,4.076-35.286,12.434-17.718,23.86-20.89,30.958-15.7,7.046,5.185,8.506,16.208-5.236,37.7Z" transform="translate(-161.739 7.785)" fill-rule="evenodd" fill="url(#d)" style="mix-blend-mode:screen;isolation:isolate"/></g><path d="M475.273,38.252l-12.841-11.17a27.076,27.076,0,0,0-37.443,1.829L377.765,78.24a21.525,21.525,0,0,1-31.084.04l-51.04-53.106a27.076,27.076,0,0,0-36.967-1.948l-13.2,11.13A27.045,27.045,0,0,0,244.086,74.5l49.449,47.9a27.061,27.061,0,0,1,.08,38.836L243.61,209.892a27.048,27.048,0,0,0,2.584,40.982l13.555,10.255A27.062,27.062,0,0,0,296,257.791l53.782-57.121a15.225,15.225,0,0,1,22.022-.159l55.848,57.6a27.065,27.065,0,0,0,39.71-.874l11.448-12.919a27.04,27.04,0,0,0-1.509-37.484l-47.223-45.275a27.1,27.1,0,0,1,0-39.074L476.267,78.2A27.058,27.058,0,0,0,475.273,38.252Z" transform="translate(921.538 779.967)" fill-rule="evenodd" fill="url(#e)"/></g></svg>