<svg xmlns="http://www.w3.org/2000/svg" xmlns:xlink="http://www.w3.org/1999/xlink" width="2342.975" height="683.846" viewBox="0 0 2342.975 683.846"><defs><linearGradient id="a" x1="0.495" y1="0.365" x2="0.458" y2="0.811" gradientUnits="objectBoundingBox"><stop offset="0" stop-color="#ffd540"/><stop offset="1" stop-color="#ffd540"/></linearGradient><linearGradient id="b" x1="0.517" y1="0.371" x2="0.482" y2="0.816" xlink:href="#a"/><linearGradient id="c" x1="0.508" y1="0.363" x2="0.48" y2="0.821" xlink:href="#a"/></defs><g transform="translate(-446.545 -1416.286)"><path d="M2471.232,365.9V791.138a103.406,103.406,0,0,1-103.4,103.414H231.688a103.413,103.413,0,0,1-103.43-103.414V365.9a103.42,103.42,0,0,1,103.4-103.431H2367.837a103.343,103.343,0,0,1,103.4,103.431Z" transform="translate(318.288 1205.581)" fill="#ec6641"/><path d="M2471.2,362.918V788.159a103.409,103.409,0,0,1-103.4,103.432l-2136.116,2.65A103.417,103.417,0,0,1,128.262,790.81V365.568a103.406,103.406,0,0,1,103.4-103.413L2367.808,259.5a103.343,103.343,0,0,1,103.4,103.413Z" transform="translate(318.317 1156.783)" fill="#f8ac7f"/><path d="M-125.109,0H2061.7a39.052,39.052,0,0,1,39.052,39.052V517.9a39.051,39.051,0,0,1-39.051,39.051H-125.111a39.05,39.05,0,0,1-39.05-39.05V39.052A39.052,39.052,0,0,1-125.109,0Z" transform="translate(651.207 1453.848)" fill="#fbbc9d" opacity="0.62"/><path d="M788.075,259.5,292.84,754.739V556.966L590.3,259.5Z" transform="translate(153.738 1156.781)" opacity="0.3" fill="url(#a)" style="mix-blend-mode:screen;isolation:isolate"/><path d="M985.63,347.081v20.574l-508.1,508.1H323.478L938.765,260.466A103.373,103.373,0,0,1,985.63,347.081Z" transform="translate(1803.89 1172.621)" opacity="0.3" fill="url(#b)" style="mix-blend-mode:screen;isolation:isolate"/><path d="M1144.932,259.5,512.847,891.59H298.987L931.073,259.5Z" transform="translate(219.854 1156.781)" opacity="0.3" fill="url(#c)" style="mix-blend-mode:screen;isolation:isolate"/><path d="M1144.932,259.5,512.847,891.59H298.987L931.073,259.5Z" transform="translate(1480.225 1156.781)" opacity="0.3" fill="url(#c)" style="mix-blend-mode:screen;isolation:isolate"/></g></svg>