<svg xmlns="http://www.w3.org/2000/svg" xmlns:xlink="http://www.w3.org/1999/xlink" width="2089.086" height="609.743" viewBox="0 0 2089.086 609.743"><defs><linearGradient id="a" x1="0.495" y1="0.365" x2="0.458" y2="0.811" gradientUnits="objectBoundingBox"><stop offset="0" stop-color="#ffd540"/><stop offset="1" stop-color="#ffd540"/></linearGradient><linearGradient id="b" x1="0.517" y1="0.371" x2="0.482" y2="0.816" xlink:href="#a"/><linearGradient id="c" x1="0.508" y1="0.363" x2="0.48" y2="0.821" xlink:href="#a"/></defs><g transform="translate(-446.545 -1189.806)"><path d="M2217.343,354.689V733.85a92.2,92.2,0,0,1-92.191,92.208H220.48a92.207,92.207,0,0,1-92.222-92.208V354.689a92.213,92.213,0,0,1,92.191-92.223h1904.7a92.144,92.144,0,0,1,92.191,92.223Z" transform="translate(318.288 973.491)" fill="#f80"/><path d="M2217.318,351.712V730.873a92.2,92.2,0,0,1-92.191,92.224L220.484,825.46a92.21,92.21,0,0,1-92.223-92.224V354.075a92.2,92.2,0,0,1,92.191-92.207L2125.127,259.5a92.145,92.145,0,0,1,92.191,92.207Z" transform="translate(318.313 930.302)" fill="#ffba00"/><path d="M-129.341,0H1820.5a34.82,34.82,0,0,1,34.82,34.82V461.782A34.819,34.819,0,0,1,1820.5,496.6H-129.342a34.819,34.819,0,0,1-34.819-34.819V34.82A34.82,34.82,0,0,1-129.341,0Z" transform="translate(646.818 1223.297)" fill="#ff9b00" opacity="0.62"/><path d="M734.411,259.505,292.84,701.075V524.733L558.069,259.505Z" transform="translate(153.735 930.301)" opacity="0.3" fill="url(#a)" style="mix-blend-mode:screen;isolation:isolate"/><path d="M913.878,337.695v18.344L460.838,809.08H323.478L872.091,260.466A92.171,92.171,0,0,1,913.878,337.695Z" transform="translate(1621.753 944.32)" opacity="0.3" fill="url(#b)" style="mix-blend-mode:screen;isolation:isolate"/><path d="M1053.264,259.505,489.673,823.1H298.987L862.579,259.505Z" transform="translate(212.02 930.301)" opacity="0.3" fill="url(#c)" style="mix-blend-mode:screen;isolation:isolate"/><path d="M1053.264,259.505,489.673,823.1H298.987L862.579,259.505Z" transform="translate(1335.815 930.301)" opacity="0.3" fill="url(#c)" style="mix-blend-mode:screen;isolation:isolate"/></g></svg>