<svg xmlns="http://www.w3.org/2000/svg" xmlns:xlink="http://www.w3.org/1999/xlink" width="727.083" height="727.082" viewBox="0 0 727.083 727.082"><defs><linearGradient id="a" x1="0.5" y1="1" x2="0.5" gradientUnits="objectBoundingBox"><stop offset="0" stop-color="#266ee0"/><stop offset="0.4" stop-color="#3a9eed"/><stop offset="1" stop-color="#aeddff"/></linearGradient><linearGradient id="b" x1="0.5" y1="1" x2="0.5" gradientUnits="objectBoundingBox"><stop offset="0.017" stop-color="#131932"/><stop offset="1" stop-color="#0f4b94"/></linearGradient><linearGradient id="c" x1="0.5" y1="1" x2="0.5" gradientUnits="objectBoundingBox"><stop offset="0.017" stop-color="#150000"/><stop offset="0.982" stop-color="#0d64c5"/></linearGradient><radialGradient id="d" cx="0.237" cy="-0.25" r="2.741" gradientTransform="translate(0.244) scale(0.511 1)" gradientUnits="objectBoundingBox"><stop offset="0" stop-color="#7bc3ed"/><stop offset="0.983" stop-color="#080800"/></radialGradient></defs><g transform="translate(-854 -593.859)"><g transform="translate(854 593.859)"><path d="M612.513,13.47c200.754,0,363.513,162.76,363.513,363.513S813.266,740.552,612.513,740.552c-200.809,0-363.57-162.816-363.57-363.569S411.7,13.47,612.513,13.47Z" transform="translate(-248.943 -13.47)" fill-rule="evenodd" fill="url(#a)"/><path d="M601.867,13.663c194.775,0,352.674,157.954,352.674,352.73s-157.9,345.466-352.674,345.466c-194.831,0-352.73-150.691-352.73-345.466s157.9-352.73,352.73-352.73Z" transform="translate(-238.297 -2.879)" fill-rule="evenodd" fill="url(#b)" style="mix-blend-mode:screen;isolation:isolate"/><path d="M928.246,284.3C893.269,129.418,754.871,13.76,589.485,13.76c-165.442,0-303.841,115.658-338.762,270.484-37.546,166.279,715.014,166.224,677.523.056Z" transform="translate(-225.914 2.443)" fill-rule="evenodd" opacity="0.5" fill="url(#c)" style="mix-blend-mode:screen;isolation:isolate"/><path d="M359.437,116.1c-16.538,11.4-26.372,19.332-34.809,21.9-21.846,6.593-29.837-12.739-19.612-26.763,8.941-12.292,48.666-51.683,113.647-75.317,93.812-34.139,198.071-22.741,200.53-4.973.95,6.7-24.864,2.235-77.217,11.286C470.4,54.587,417.49,76.155,359.437,116.1Zm-70.232,68.613c-11.454,17.991-25.144,21.064-33.078,14.751-7.99-6.258-8.715-20.282,4.526-39.167,13.8-19.667,26.485-23.187,34.362-17.433,7.823,5.755,9.444,17.991-5.809,41.849Z" transform="translate(-170.976 10.17)" fill-rule="evenodd" fill="url(#d)" style="mix-blend-mode:screen;isolation:isolate"/></g><path d="M535.633,351.242c-5.4-69.287-61.771-125.12-131.1-129.912a141.6,141.6,0,0,0-52.644,276.3v15.056a11.861,11.861,0,0,0,18.567,9.782l61.433-42.1a11.861,11.861,0,0,0,0-19.567l-61.433-42.1a11.861,11.861,0,0,0-18.567,9.783v15.009A91.441,91.441,0,0,1,399.6,271.234c47.227,2.581,85.317,42.049,86.342,89.338A90.878,90.878,0,0,1,466.75,418.6a25.144,25.144,0,0,0,2.811,34.15c10.6,9.6,27.329,8.619,36.186-2.612A141.1,141.1,0,0,0,535.633,351.242Z" transform="translate(820.814 586.909)" fill="#fff"/></g></svg>