<svg xmlns="http://www.w3.org/2000/svg" xmlns:xlink="http://www.w3.org/1999/xlink" width="2276.821" height="664.538" viewBox="0 0 2276.821 664.538"><defs><linearGradient id="a" x1="0.495" y1="0.365" x2="0.458" y2="0.811" gradientUnits="objectBoundingBox"><stop offset="0" stop-color="#ffd540"/><stop offset="1" stop-color="#ffd540"/></linearGradient><linearGradient id="b" x1="0.517" y1="0.371" x2="0.482" y2="0.816" xlink:href="#a"/><linearGradient id="c" x1="0.508" y1="0.363" x2="0.48" y2="0.821" xlink:href="#a"/></defs><g transform="translate(-446.545 -1303.046)"><path d="M2405.078,362.976V776.211A100.486,100.486,0,0,1,2304.6,876.7H228.767a100.494,100.494,0,0,1-100.51-100.494V362.976a100.5,100.5,0,0,1,100.476-100.51H2304.6a100.424,100.424,0,0,1,100.476,100.51Z" transform="translate(318.288 1090.879)" fill="#8e8db4"/><path d="M2405.05,360V773.233a100.49,100.49,0,0,1-100.476,100.511l-2075.8,2.575a100.5,100.5,0,0,1-100.51-100.511V362.574A100.486,100.486,0,0,1,228.738,262.081l2075.836-2.576A100.425,100.425,0,0,1,2405.05,360Z" transform="translate(318.316 1043.543)" fill="#dae1ef"/><path d="M-126.212,0H1998.855A37.949,37.949,0,0,1,2036.8,37.949V503.28a37.948,37.948,0,0,1-37.948,37.948H-126.213a37.948,37.948,0,0,1-37.948-37.948V37.949A37.949,37.949,0,0,1-126.212,0Z" transform="translate(650.064 1339.547)" fill="#a3b4d7" opacity="0.62"/><path d="M774.092,259.5,292.84,740.756V548.567L581.9,259.5Z" transform="translate(153.738 1043.541)" opacity="0.3" fill="url(#a)" style="mix-blend-mode:screen;isolation:isolate"/><path d="M966.933,344.635v19.993L473.181,858.38h-149.7L921.392,260.466A100.454,100.454,0,0,1,966.933,344.635Z" transform="translate(1756.432 1058.907)" opacity="0.3" fill="url(#b)" style="mix-blend-mode:screen;isolation:isolate"/><path d="M1121.047,259.5,506.809,873.743H298.987L913.226,259.5Z" transform="translate(217.813 1043.541)" opacity="0.3" fill="url(#c)" style="mix-blend-mode:screen;isolation:isolate"/><path d="M1121.047,259.5,506.809,873.743H298.987L913.226,259.5Z" transform="translate(1442.597 1043.541)" opacity="0.3" fill="url(#c)" style="mix-blend-mode:screen;isolation:isolate"/></g></svg>