<svg xmlns="http://www.w3.org/2000/svg" xmlns:xlink="http://www.w3.org/1999/xlink" width="286.21" height="286.21" viewBox="0 0 286.21 286.21"><defs><linearGradient id="a" x1="0.5" y1="1" x2="0.5" gradientUnits="objectBoundingBox"><stop offset="0" stop-color="#266ee0"/><stop offset="0.4" stop-color="#3a9eed"/><stop offset="1" stop-color="#aeddff"/></linearGradient><linearGradient id="b" x1="0.5" y1="1" x2="0.5" gradientUnits="objectBoundingBox"><stop offset="0.017" stop-color="#131932"/><stop offset="1" stop-color="#0f4b94"/></linearGradient><linearGradient id="c" x1="0.5" y1="1" x2="0.5" gradientUnits="objectBoundingBox"><stop offset="0.017" stop-color="#150000"/><stop offset="0.982" stop-color="#0d64c5"/></linearGradient><radialGradient id="d" cx="0.237" cy="-0.25" r="2.741" gradientTransform="translate(0.244) scale(0.511 1)" gradientUnits="objectBoundingBox"><stop offset="0" stop-color="#7bc3ed"/><stop offset="0.983" stop-color="#080800"/></radialGradient><linearGradient id="e" y1="0.5" x2="1" y2="0.5" gradientUnits="objectBoundingBox"><stop offset="0" stop-color="#0d64c5"/><stop offset="1" stop-color="#0058c2"/></linearGradient></defs><g transform="translate(-483.893 -2026.388)"><g transform="translate(483.893 2026.388)"><path d="M426.207,13.47A143.1,143.1,0,1,1,283.113,156.564,143.1,143.1,0,0,1,426.207,13.47Z" transform="translate(-283.113 -13.47)" fill-rule="evenodd" fill="url(#a)"/><path d="M422.133,13.663A138.851,138.851,0,0,1,560.983,152.512c0,76.672-62.156,135.99-138.849,135.99-76.671,0-138.827-59.318-138.827-135.99A138.846,138.846,0,0,1,422.133,13.663Z" transform="translate(-279.04 -9.418)" fill-rule="evenodd" fill="url(#b)" style="mix-blend-mode:screen;isolation:isolate"/><path d="M550.789,120.256a136.754,136.754,0,0,0-266.723-.022c-14.758,65.455,281.481,65.433,266.723.022Z" transform="translate(-274.322 -7.382)" fill-rule="evenodd" opacity="0.5" fill="url(#c)" style="mix-blend-mode:screen;isolation:isolate"/><path d="M327.482,54.132c-6.51,4.487-10.4,7.61-13.7,8.622-8.6,2.6-11.745-5.015-7.72-10.535,3.519-4.839,19.157-20.345,44.736-29.648,36.906-13.438,77.97-8.952,78.937-1.957.374,2.639-9.787.88-30.4,4.443-28.2,4.861-49.025,13.35-71.855,29.076ZM299.836,81.141c-4.531,7.082-9.919,8.292-13.043,5.806-3.123-2.463-3.431-7.984,1.782-15.418,5.432-7.742,10.446-9.128,13.526-6.862,3.1,2.265,3.717,7.082-2.265,16.474Z" transform="translate(-253.296 -4.426)" fill-rule="evenodd" fill="url(#d)" style="mix-blend-mode:screen;isolation:isolate"/></g><g transform="translate(552.891 2096.777)"><g transform="translate(0 0)"><path d="M149.781,98.838a39.171,39.171,0,0,0-.641-5.079,42.006,42.006,0,0,0-1.8-6.977c-.247-.715-.493-1.43-.789-2.12a39.99,39.99,0,0,0-2.441-5.2,1.043,1.043,0,0,1-.123-.173c-.419-.789-.888-1.578-1.381-2.342-.518-.789-1.06-1.6-1.627-2.367a42.36,42.36,0,0,0-4.216-5c-.518-.518-1.035-1.035-1.578-1.529-.69-.666-1.43-1.307-2.194-1.923s-1.529-1.233-2.342-1.8c-.789-.567-1.6-1.109-2.441-1.652l-5.424,5.892-1.652,3.008q.888.518,1.775,1.109a.536.536,0,0,1,.2.123c.518.345,1.035.69,1.529,1.06a2.79,2.79,0,0,0,.32.247,34.647,34.647,0,0,1,8.974,10.256c.37.641.715,1.307,1.06,1.972.321.666.616,1.331.912,2.022a32.9,32.9,0,0,1,2,6.484,13.275,13.275,0,0,1,.3,1.726c.148.937.247,1.874.32,2.835.049.789.074,1.578.074,2.391v.025a34.791,34.791,0,0,1-2.12,12.006l8.555,8.555h.025c0-.025,0-.025.025-.049.049-.123.123-.247.173-.37.32-.69.641-1.381.937-2.1a21.84,21.84,0,0,0,.838-2.1,17.175,17.175,0,0,0,.641-1.9c.173-.493.345-1.011.468-1.5.173-.518.3-1.06.419-1.6.123-.493.247-.986.345-1.5.123-.518.222-1.035.321-1.553s.173-1.06.222-1.578q.185-1.331.3-2.663c.049-.444.074-.888.1-1.331.049-.764.049-1.529.049-2.317C149.88,100.834,149.855,99.824,149.781,98.838Zm-25.221,30.94a29.449,29.449,0,0,1-3.427,2.268l.641,2.786,5.029,6.977a41.832,41.832,0,0,0,4.561-3.032,15.083,15.083,0,0,0,1.233-.961Zm16.247,16.247a60.152,60.152,0,0,1-8.259,5.769h-.025l.025.049,1.923,3.624,5.794,4.857c.592-.37,1.183-.764,1.775-1.159s1.159-.789,1.726-1.208c1.159-.814,2.268-1.676,3.353-2.539.567-.468,1.134-.912,1.676-1.405ZM172.66,99.552c-.025-.789-.074-1.553-.123-2.342-.148-2.268-.419-4.536-.789-6.78-.123-.74-.271-1.479-.419-2.219-.173-.888-.37-1.775-.592-2.638-.123-.592-.271-1.183-.444-1.75-.592-2.17-1.282-4.314-2.071-6.41l-.814-2.071q-.888-2.071-1.849-4.068l-1.035-2a65.745,65.745,0,0,0-4.709-7.593c-.444-.592-.888-1.208-1.331-1.8-1.011-1.331-2.071-2.613-3.18-3.871a.024.024,0,0,1-.025-.025c-1.134-1.257-2.293-2.465-3.5-3.649q-1.775-1.7-3.624-3.254c-1.356-1.159-2.761-2.243-4.191-3.279a64.177,64.177,0,0,0-5.769-3.747l-.025.025L135.63,44.92l-1.948,7.569a2.058,2.058,0,0,1,.3.2c.32.2.641.394.962.616.222.148.419.3.641.419a3.6,3.6,0,0,0,.32.222c1.282.838,2.515,1.726,3.723,2.687a1.367,1.367,0,0,0,.2.148c.863.715,1.7,1.43,2.515,2.17.69.592,1.356,1.233,2,1.9.32.3.616.616.912.912a.024.024,0,0,1,.025.025c.715.74,1.405,1.5,2.071,2.268.148.148.271.321.394.444.542.666,1.109,1.356,1.627,2.046.222.271.444.567.641.838.592.764,1.134,1.578,1.7,2.391.123.2.271.419.394.616.542.838,1.085,1.7,1.578,2.589q.629,1.072,1.183,2.145c.3.542.567,1.085.814,1.652.468.961.888,1.948,1.307,2.934s.814,1.972,1.159,2.983a62.254,62.254,0,0,1,2,7.051A56.37,56.37,0,0,1,161.2,106.6v.148a57.93,57.93,0,0,1-7.667,24.136l8.21,8.21c.592-.912,1.159-1.849,1.7-2.786.641-1.134,1.282-2.268,1.849-3.452.3-.567.592-1.159.863-1.75l.814-1.775c.518-1.208,1.011-2.416,1.455-3.624.222-.592.444-1.208.641-1.824a61.336,61.336,0,0,0,2.465-9.393,68.567,68.567,0,0,0,1.011-7.741c.025-.419.049-.863.074-1.282v-.123C172.709,103.423,172.734,101.475,172.66,99.552Zm-51.674-1.208-.025-.025a1.842,1.842,0,0,1,.074.493A2.73,2.73,0,0,0,120.986,98.344Zm-.912-4.019c-.123-.345-.271-.715-.419-1.06q-.407-.888-.888-1.775a18.873,18.873,0,0,0-2.909-3.821,13.925,13.925,0,0,0-2.441-2.071,15.168,15.168,0,0,0-2.811-1.627c-.493-.222-1.011-.419-1.553-.616-.32-.123-.641-.222-.986-.32-.37-.1-.764-.2-1.159-.3l-.025-40.457v-7.3l-2.835-6.435L76.609,53.968l30.3,30.3L120.961,98.32A17.026,17.026,0,0,0,120.074,94.326ZM65.934,71.151l-3.8-3.8-5.6,5.177-6.163-.2L29.891,72.8,28.88,102.412,29,105.864v.049l.863,23.815,23.125.592,3.525-.148,47.434,44.2,1.9-6.262.69-46.941h.025a13.127,13.127,0,0,0,2.687-.863,12.875,12.875,0,0,0,2.515-1.43,11.31,11.31,0,0,0,1.085-.814Z" transform="translate(-28.88 -28.55)" fill="#2c5fc3" fill-rule="evenodd" style="isolation:isolate"/><path d="M112.264,103.839a11.31,11.31,0,0,1-1.085.814,12.875,12.875,0,0,1-2.515,1.43,13.127,13.127,0,0,1-2.687.863l-.148,9.935c4.191-.986,8.16-4.166,10.922-8.555Zm-7,50.047-1.874,6.287-.025-.025-47.434-44.2-3.525.148L29.28,115.5l1.183,8.234,21.942,2.243,3.525-.148,47.458,41.763,1.923-6.287Zm26.749-30.3a15.083,15.083,0,0,1-1.233.961,41.832,41.832,0,0,1-4.561,3.032l-5.029-6.977-.641-2.786v9.911l.641,2.761,5.128,5.2a55.429,55.429,0,0,0,10.305-7.495Zm17.036-31.064a13.293,13.293,0,0,1-.2,1.381c-.049.518-.123,1.06-.222,1.578s-.2,1.035-.321,1.553a10.237,10.237,0,0,1-.345,1.5c-.123.542-.247,1.085-.419,1.6a10.625,10.625,0,0,1-.468,1.5,17.175,17.175,0,0,1-.641,1.9,21.84,21.84,0,0,1-.838,2.1c-.3.715-.616,1.405-.937,2.1-.049.123-.123.247-.173.37-.025.025-.025.025-.025.049v.025l2.934,2.934a46.486,46.486,0,0,0,1.9-13.633A47.638,47.638,0,0,0,149.047,92.523Zm10.5-17.011a62.254,62.254,0,0,0-2-7.051c-.37-1.011-.74-2-1.159-2.983s-.838-1.972-1.307-2.934c-.247-.567-.518-1.109-.814-1.652q-.555-1.072-1.183-2.145c-.493-.888-1.035-1.75-1.578-2.589-.123-.2-.271-.419-.394-.616-.567-.814-1.109-1.627-1.7-2.391-.2-.271-.419-.567-.641-.838-.518-.69-1.085-1.381-1.627-2.046-.123-.123-.247-.3-.394-.444-.666-.764-1.356-1.529-2.071-2.268a.024.024,0,0,0-.025-.025c-.3-.3-.592-.616-.912-.912-.641-.666-1.307-1.307-2-1.9-.814-.74-1.652-1.455-2.515-2.17a1.367,1.367,0,0,1-.2-.148c-1.208-.961-2.441-1.849-3.723-2.687a3.6,3.6,0,0,1-.32-.222l-.3-.222a2.466,2.466,0,0,0-.345-.2c-.321-.222-.641-.419-.962-.616a2.058,2.058,0,0,0-.3-.2v9.886A57.8,57.8,0,0,1,160.61,92.375c.123-1.578.2-3.18.2-4.807A59.366,59.366,0,0,0,159.55,75.512Zm-21.621,9.664c-.074-.961-.173-1.9-.32-2.835-.074-.592-.173-1.159-.3-1.726a32.9,32.9,0,0,0-2-6.484c-.3-.69-.592-1.356-.912-2.022-.345-.666-.69-1.331-1.06-1.972a34.647,34.647,0,0,0-8.974-10.256c-.1-.074-.222-.148-.345-.222-.493-.37-.986-.74-1.5-1.085a.536.536,0,0,0-.2-.123q-.888-.592-1.775-1.109v9.886A34.929,34.929,0,0,1,133.343,80a33.93,33.93,0,0,1,4.29,12.524,32.705,32.705,0,0,0,.37-4.931v-.025C138,86.754,137.978,85.965,137.929,85.176Zm10.281,54.608c-.542.493-1.109.937-1.676,1.405-1.085.863-2.194,1.726-3.353,2.539-.567.419-1.134.814-1.726,1.208-.592.37-1.183.764-1.775,1.134l-5.794-4.832-1.923-3.673v.049l.69,6.8,1.948,3.673,5.769,4.832a58.27,58.27,0,0,0,12.278-8.7Zm23.741-47.261a69.1,69.1,0,0,1-3.476,17.134c-.2.616-.419,1.233-.641,1.824-.444,1.208-.937,2.416-1.455,3.624l-.814,1.775c-.271.592-.567,1.183-.863,1.75-.567,1.183-1.208,2.317-1.849,3.452-.542.937-1.109,1.874-1.7,2.786l3.6,3.6a69,69,0,0,0,7.371-30.99C172.123,95.826,172.049,94.174,171.951,92.523Z" transform="translate(-28.294 -14.321)" fill="#a6e6ff" fill-rule="evenodd" opacity="0.5" style="isolation:isolate"/><path d="M149.781,98.838a39.171,39.171,0,0,0-.641-5.079,42.006,42.006,0,0,0-1.8-6.977c-.247-.715-.493-1.43-.789-2.12a49.965,49.965,0,0,0-2.441-5.2,1.043,1.043,0,0,1-.123-.173c-.419-.789-.888-1.578-1.381-2.342-.518-.789-1.06-1.6-1.627-2.367a50.867,50.867,0,0,0-4.216-5c-.518-.518-1.035-1.035-1.578-1.529-.69-.666-1.43-1.307-2.194-1.923s-1.529-1.233-2.342-1.8c-.789-.567-1.6-1.109-2.441-1.652l-5.424,5.892-1.652,3.008q.888.518,1.775,1.109a.536.536,0,0,1,.2.123c.518.345,1.011.715,1.5,1.085l.025-.025,3.575-3.9a46.25,46.25,0,0,1,21.523,35.5c.049-.444.074-.888.1-1.331.049-.764.049-1.529.049-2.317C149.88,100.834,149.855,99.824,149.781,98.838Zm-29.708-4.512c-.123-.345-.271-.715-.419-1.06q-.407-.888-.888-1.775a18.873,18.873,0,0,0-2.909-3.821,18.055,18.055,0,0,0-5.251-3.7c-.493-.222-1.011-.419-1.553-.616-.32-.123-.641-.222-.986-.32-.37-.1-.764-.2-1.159-.3v1.529L120.961,98.32A17.026,17.026,0,0,0,120.074,94.326ZM104.049,28.55,76.609,53.968l3.772,3.772,23.667-21.892,2.835,6.435v-7.3Zm-41.911,38.8-5.6,5.177-6.163-.2L29.891,72.8,28.88,102.412,29,105.864,29.891,80.1l20.487-.468,6.163.2,9.393-8.678Zm110.522,32.2c-.025-.789-.074-1.553-.123-2.342-.148-2.268-.419-4.536-.789-6.78-.123-.74-.271-1.479-.419-2.219-.173-.888-.37-1.775-.592-2.638-.123-.592-.271-1.183-.444-1.75-.592-2.17-1.282-4.314-2.071-6.41l-.814-2.071q-.888-2.071-1.849-4.068l-1.035-2a70.781,70.781,0,0,0-4.709-7.593c-.444-.592-.888-1.208-1.331-1.8-1.011-1.331-2.071-2.613-3.18-3.871a.024.024,0,0,1-.025-.025c-1.134-1.257-2.293-2.465-3.5-3.649q-1.775-1.7-3.624-3.254c-1.356-1.159-2.761-2.243-4.191-3.279-1.874-1.331-3.8-2.564-5.794-3.723L135.63,44.92l-1.972,7.569h.025v.025c.1.049.2.123.3.173.32.2.641.394.962.616a2.466,2.466,0,0,1,.345.2l.345-1.282,2.539-2.835h.025a69.023,69.023,0,0,1,34.416,55.964c.049-1.183.074-2.342.074-3.525C172.685,101.056,172.685,100.317,172.66,99.552Z" transform="translate(-28.88 -28.55)" fill="#260e18" fill-rule="evenodd" opacity="0.5" style="isolation:isolate"/></g><path d="M171.475,162.833a4.519,4.519,0,0,1-1.329,3.246,4.73,4.73,0,0,1-6.484,0l-24.927-24.867c.3-.3.573-.571.848-.869-.3.274-.573.571-.871.846l-7.4-7.382-3.551-3.543-4.032-4.023-7.4-7.382-8.065-8.045-3.139-3.131c.275-.366.55-.754.8-1.166a13.111,13.111,0,0,1-.825,1.143L61.709,64.371l-3.528-3.52L34.055,36.784a4.579,4.579,0,0,1,6.484-6.468l68.572,68.407a23.105,23.105,0,0,1-1.031,3.588,22.884,22.884,0,0,0,1.054-3.565L121.9,111.476l7.629,7.611,3.3,3.291,4.422,4.411,7.515,7.5,3.666,3.657,21.72,21.667A4.5,4.5,0,0,1,171.475,162.833Z" transform="translate(-23.26 -27.905)" fill="#2c5fc3"/></g><path d="M64.325,64.143a14.142,14.142,0,0,0,.888-1.233c-.271.444-.567.863-.863,1.257-.025.025-.049.025-.049.049C64.3,64.192,64.325,64.167,64.325,64.143Z" transform="translate(573.449 2121.523)" fill="url(#e)"/><path d="M66.719,59.5l.025.025a24.728,24.728,0,0,1-1.134,3.846A24.969,24.969,0,0,0,66.719,59.5Z" transform="translate(575.368 2116.526)" fill="url(#e)"/><path d="M80.239,77.71c-.3.32-.592.616-.912.937-.2.173-.37.37-.567.542.173-.2.37-.37.542-.567C79.623,78.326,79.919,78.006,80.239,77.71Z" transform="translate(594.638 2143.21)" fill="url(#e)"/><path d="M64.325,73.023c0,.025-.025.049-.025.074,0-.025.025-.025.049-.049Zm28.8,7.889a2.489,2.489,0,0,0-.173.37,1.572,1.572,0,0,1,.2-.345Zm7.371,28.278c-.173.2-.37.37-.542.567.2-.173.37-.37.567-.542ZM69.083,56.875l-.025-.025a1.842,1.842,0,0,1,.074.493A2.73,2.73,0,0,0,69.083,56.875Zm-.419,6.533-.025-.025" transform="translate(573.449 2112.643)" fill="none"/></g></svg>