<svg xmlns="http://www.w3.org/2000/svg" xmlns:xlink="http://www.w3.org/1999/xlink" width="705.927" height="705.925" viewBox="0 0 705.927 705.925"><defs><linearGradient id="a" x1="0.5" y1="1" x2="0.5" gradientUnits="objectBoundingBox"><stop offset="0" stop-color="#004f0c"/><stop offset="0.442" stop-color="#267800"/><stop offset="1" stop-color="#39d600"/></linearGradient><linearGradient id="b" x1="0.5" y1="1" x2="0.5" gradientUnits="objectBoundingBox"><stop offset="0.017" stop-color="#175700"/><stop offset="1" stop-color="#76bf54"/></linearGradient><linearGradient id="c" x1="0.5" y1="1" x2="0.5" gradientUnits="objectBoundingBox"><stop offset="0.017" stop-color="#1b4700"/><stop offset="0.982" stop-color="#a5fd6f"/></linearGradient><radialGradient id="d" cx="0.237" cy="-0.25" r="2.741" gradientTransform="translate(0.244) scale(0.511 1)" gradientUnits="objectBoundingBox"><stop offset="0" stop-color="#ffe1ed"/><stop offset="0.006" stop-color="#b7ff91"/><stop offset="0.983" stop-color="#080800"/></radialGradient></defs><g transform="translate(-754 -593.859)"><g transform="translate(754 593.859)"><path d="M567.71,13.47C762.675,13.47,920.7,171.493,920.7,366.405S762.675,719.395,567.71,719.395c-194.912,0-352.936-158.078-352.936-352.989S372.8,13.47,567.71,13.47Z" transform="translate(-214.774 -13.47)" fill-rule="evenodd" fill="url(#a)"/><path d="M557.433,13.663C746.54,13.663,899.9,167.021,899.9,356.128S746.54,691.542,557.433,691.542,214.967,545.236,214.967,356.128,368.325,13.663,557.433,13.663Z" transform="translate(-204.497 -3.193)" fill-rule="evenodd" fill="url(#b)" style="mix-blend-mode:screen;isolation:isolate"/><path d="M874.321,276.427C840.416,126.053,706.045,13.76,545.417,13.76c-160.573,0-294.944,112.293-328.9,262.613-36.454,161.441,694.263,161.387,657.808.054Z" transform="translate(-192.481 1.972)" fill-rule="evenodd" opacity="0.5" fill="url(#c)" style="mix-blend-mode:screen;isolation:isolate"/><path d="M322.072,113.13c-16.057,11.067-25.605,18.77-33.8,21.265-21.157,6.4-28.969-12.369-19.042-25.985,8.681-11.934,47.251-50.179,110.394-73.126,91.028-33.145,192.309-22.079,194.7-4.828.867,6.51-24.141,2.17-74.971,10.958C429.808,53.4,378.435,74.343,322.072,113.13Zm-68.188,66.616c-11.12,17.468-24.412,20.451-32.115,14.321-7.7-6.076-8.462-19.692,4.395-38.028,13.4-19.1,25.713-22.513,33.361-16.925,7.6,5.588,9.169,17.468-5.641,40.632Z" transform="translate(-139.149 9.47)" fill-rule="evenodd" fill="url(#d)" style="mix-blend-mode:screen;isolation:isolate"/></g><path d="M507.29,1531.738l-90.618,52.321v-35.63a19.274,19.274,0,0,0-28.909-16.691l-130.973,75.618a19.273,19.273,0,0,0,0,33.382l130.973,75.619a19.274,19.274,0,0,0,28.909-16.693v-35.625l90.618,52.318a19.274,19.274,0,0,0,28.909-16.693V1548.429A19.274,19.274,0,0,0,507.29,1531.738Z" transform="translate(714.646 -678.256)" fill="#fff"/></g></svg>