<svg xmlns="http://www.w3.org/2000/svg" width="17.363" height="16.857" viewBox="0 0 17.363 16.857">
  <path id="home_app_logo_FILL0_wght400_GRAD0_opsz48" d="M10.823,23.907V20.048H18.54v3.858ZM6,19.325V14.912a1.552,1.552,0,0,1,.121-.6,1.2,1.2,0,0,1,.362-.482l7.235-6.415a1.128,1.128,0,0,1,.446-.277,1.635,1.635,0,0,1,1.037,0,1.128,1.128,0,0,1,.446.277l1.929,1.712Zm1.447,4.582A1.441,1.441,0,0,1,6,22.46V20.627L9.858,17.2v6.7Zm12.058,0V16l-4.124-3.666L18.3,9.751l4.582,4.076a1.428,1.428,0,0,1,.362.494,1.466,1.466,0,0,1,.121.591V22.46a1.441,1.441,0,0,1-1.447,1.447Z" transform="translate(-6 -7.05)" fill="#25ade6"/>
</svg>
