<svg xmlns="http://www.w3.org/2000/svg" width="13.637" height="13.637" viewBox="0 0 13.637 13.637">
  <path id="dark_mode_FILL0_wght400_GRAD0_opsz48" d="M12.818,19.637a6.575,6.575,0,0,1-4.83-1.989A6.575,6.575,0,0,1,6,12.818a6.575,6.575,0,0,1,1.989-4.83A6.575,6.575,0,0,1,12.818,6q.152,0,.322.009t.436.028a4.137,4.137,0,0,0-1.061,1.5,4.739,4.739,0,0,0-.379,1.875A4.074,4.074,0,0,0,16.227,13.5a5.073,5.073,0,0,0,1.875-.35,4.187,4.187,0,0,0,1.5-.975q.019.227.028.369t.009.275a6.79,6.79,0,0,1-6.818,6.818Zm0-1.136a5.448,5.448,0,0,0,3.6-1.278c1.023-.852,2.161-3.053,2.053-2.04-.316.139-1.693,2.825-2.053,2.895s-4.095.9-4.461.9c-1.452,0-4.82-2.709-4.82-4.161,0-.3-.526-3.2-.463-3.546s.813-.861.977-1.3c-1.237.341,1.522-1.689.708-.647a5.667,5.667,0,0,0,.436,7.519A5.479,5.479,0,0,0,12.818,18.5ZM12.743,12.875Z" transform="translate(-6 -6)" fill="#25ade6"/>
</svg>
