<svg xmlns="http://www.w3.org/2000/svg" xmlns:xlink="http://www.w3.org/1999/xlink" width="49.808" height="49.808" viewBox="0 0 49.808 49.808">
  <defs>
    <linearGradient id="linear-gradient" x1="0.5" y1="1" x2="0.5" gradientUnits="objectBoundingBox">
      <stop offset="0" stop-color="#266ee0"/>
      <stop offset="0.4" stop-color="#3a9eed"/>
      <stop offset="1" stop-color="#aeddff"/>
    </linearGradient>
    <linearGradient id="linear-gradient-2" x1="0.5" y1="1" x2="0.5" gradientUnits="objectBoundingBox">
      <stop offset="0.017" stop-color="#131932"/>
      <stop offset="1" stop-color="#0f4b94"/>
    </linearGradient>
    <linearGradient id="linear-gradient-3" x1="0.5" y1="1" x2="0.5" gradientUnits="objectBoundingBox">
      <stop offset="0.017" stop-color="#150000"/>
      <stop offset="0.982" stop-color="#0d64c5"/>
    </linearGradient>
    <radialGradient id="radial-gradient" cx="0.237" cy="-0.25" r="2.741" gradientTransform="translate(0.244) scale(0.511 1)" gradientUnits="objectBoundingBox">
      <stop offset="0" stop-color="#7bc3ed"/>
      <stop offset="0.983" stop-color="#080800"/>
    </radialGradient>
  </defs>
  <g id="Group_2252" data-name="Group 2252" transform="translate(122 -370)">
    <g id="Group_440" data-name="Group 440" transform="translate(-122 370)">
      <g id="Group_428" data-name="Group 428" transform="translate(0)">
        <path id="Path_925" data-name="Path 925" d="M273.849,13.47a24.9,24.9,0,1,1-24.906,24.9,24.9,24.9,0,0,1,24.906-24.9Z" transform="translate(-248.943 -13.47)" fill-rule="evenodd" fill="url(#linear-gradient)"/>
        <path id="Path_926" data-name="Path 926" d="M273.3,13.663A24.163,24.163,0,0,1,297.46,37.826c0,13.343-10.817,23.666-24.159,23.666s-24.163-10.323-24.163-23.666A24.164,24.164,0,0,1,273.3,13.663Z" transform="translate(-248.394 -12.924)" fill-rule="evenodd" fill="url(#linear-gradient-2)" style="mix-blend-mode: screen;isolation: isolate"/>
        <path id="Path_927" data-name="Path 927" d="M295.869,32.293a23.8,23.8,0,0,0-46.413,0c-2.572,11.391,48.981,11.387,46.413,0Z" transform="translate(-247.756 -12.65)" fill-rule="evenodd" opacity="0.5" fill="url(#linear-gradient-3)" style="mix-blend-mode: screen;isolation: isolate"/>
        <path id="Path_928" data-name="Path 928" d="M257.836,20.9a11.734,11.734,0,0,1-2.384,1.5c-1.5.452-2.044-.873-1.344-1.833a18.389,18.389,0,0,1,7.785-5.16c6.426-2.339,13.569-1.558,13.737-.341.065.459-1.7.153-5.29.773a29.273,29.273,0,0,0-12.5,5.06Zm-4.811,4.7c-.785,1.232-1.722,1.443-2.266,1.01s-.6-1.389.31-2.683c.945-1.347,1.814-1.588,2.354-1.194s.647,1.232-.4,2.867Z" transform="translate(-244.926 -12.252)" fill-rule="evenodd" fill="url(#radial-gradient)" style="mix-blend-mode: screen;isolation: isolate"/>
      </g>
      <path id="Path_922" data-name="Path 922" d="M272.22,229.905a9.7,9.7,0,1,0-12.587,10.028v1.031a.812.812,0,0,0,1.272.67l4.208-2.884a.812.812,0,0,0,0-1.34l-4.208-2.884a.812.812,0,0,0-1.272.67v1.028a6.267,6.267,0,1,1,7.869-1.7,1.718,1.718,0,0,0,2.671,2.16A9.666,9.666,0,0,0,272.22,229.905Z" transform="translate(-237.8 -206.32)" fill="#fff"/>
    </g>
  </g>
</svg>
