<svg xmlns="http://www.w3.org/2000/svg" width="17.19" height="17.432" viewBox="0 0 17.19 17.432">
  <path id="Path_591" data-name="Path 591" d="M295.335,16.67l-5.678,5.258-.736-.024-2.45.055L286.35,25.5l.118,3.265,2.763.071.423-.016,5.671,5.284.226-.749.084-5.61a2.544,2.544,0,0,0,1.735-2.313,2.158,2.158,0,0,0-1.693-2.282l0-5.707-.339-.77Zm4.08,1.617a8.244,8.244,0,0,1,.247,14.133l-.691-.578-.231-.439a6.9,6.9,0,0,0,.137-11.869l.234-.907.3-.339Zm-1.194,2.461a5.524,5.524,0,0,1-.168,9.461l-.6-.833-.076-.334a4.173,4.173,0,0,0,0-7.229l.2-.36.647-.7Z" transform="translate(-286.35 -16.67)" fill="#25ade6" fill-rule="evenodd"/>
</svg>
